<svg width="107" height="106" viewBox="0 0 107 106" fill="none" xmlns="http://www.w3.org/2000/svg">
<g filter="url(#filter0_dddd_10_25)">
<rect x="10" y="10" width="86.0206" height="85" rx="15" fill="white"/>
</g>
<path d="M34.6442 61V44.2H42.9242C44.7962 44.2 46.4442 44.544 47.8682 45.232C49.2922 45.904 50.4042 46.864 51.2042 48.112C52.0042 49.36 52.4042 50.848 52.4042 52.576C52.4042 54.32 52.0042 55.824 51.2042 57.088C50.4042 58.336 49.2922 59.304 47.8682 59.992C46.4442 60.664 44.7962 61 42.9242 61H34.6442ZM40.3082 56.584H42.6842C43.4842 56.584 44.1802 56.432 44.7722 56.128C45.3802 55.824 45.8522 55.376 46.1882 54.784C46.5242 54.176 46.6922 53.44 46.6922 52.576C46.6922 51.728 46.5242 51.008 46.1882 50.416C45.8522 49.824 45.3802 49.376 44.7722 49.072C44.1802 48.768 43.4842 48.616 42.6842 48.616H40.3082V56.584ZM52.4139 61L59.7579 44.2H65.3259L72.6699 61H66.8139L61.3899 46.888H63.5979L58.1739 61H52.4139ZM56.7819 58.072L58.2219 53.992H65.9499L67.3899 58.072H56.7819Z" fill="url(#paint0_linear_10_25)"/>
<defs>
<filter id="filter0_dddd_10_25" x="0" y="0" width="106.021" height="106" filterUnits="userSpaceOnUse" color-interpolation-filters="sRGB">
<feFlood flood-opacity="0" result="BackgroundImageFix"/>
<feColorMatrix in="SourceAlpha" type="matrix" values="0 0 0 0 0 0 0 0 0 0 0 0 0 0 0 0 0 0 127 0" result="hardAlpha"/>
<feOffset dx="-3" dy="4"/>
<feGaussianBlur stdDeviation="3.5"/>
<feComposite in2="hardAlpha" operator="out"/>
<feColorMatrix type="matrix" values="0 0 0 0 0.282353 0 0 0 0 0.282353 0 0 0 0 0.282353 0 0 0 0.25 0"/>
<feBlend mode="normal" in2="BackgroundImageFix" result="effect1_dropShadow_10_25"/>
<feColorMatrix in="SourceAlpha" type="matrix" values="0 0 0 0 0 0 0 0 0 0 0 0 0 0 0 0 0 0 127 0" result="hardAlpha"/>
<feOffset dy="-3"/>
<feGaussianBlur stdDeviation="3.5"/>
<feComposite in2="hardAlpha" operator="out"/>
<feColorMatrix type="matrix" values="0 0 0 0 0.282353 0 0 0 0 0.282353 0 0 0 0 0.282353 0 0 0 0.25 0"/>
<feBlend mode="normal" in2="effect1_dropShadow_10_25" result="effect2_dropShadow_10_25"/>
<feColorMatrix in="SourceAlpha" type="matrix" values="0 0 0 0 0 0 0 0 0 0 0 0 0 0 0 0 0 0 127 0" result="hardAlpha"/>
<feOffset dx="3"/>
<feGaussianBlur stdDeviation="3.5"/>
<feComposite in2="hardAlpha" operator="out"/>
<feColorMatrix type="matrix" values="0 0 0 0 0.282353 0 0 0 0 0.282353 0 0 0 0 0.282353 0 0 0 0.25 0"/>
<feBlend mode="normal" in2="effect2_dropShadow_10_25" result="effect3_dropShadow_10_25"/>
<feColorMatrix in="SourceAlpha" type="matrix" values="0 0 0 0 0 0 0 0 0 0 0 0 0 0 0 0 0 0 127 0" result="hardAlpha"/>
<feOffset dy="3"/>
<feGaussianBlur stdDeviation="3.5"/>
<feComposite in2="hardAlpha" operator="out"/>
<feColorMatrix type="matrix" values="0 0 0 0 0.280833 0 0 0 0 0.280833 0 0 0 0 0.280833 0 0 0 0.25 0"/>
<feBlend mode="normal" in2="effect3_dropShadow_10_25" result="effect4_dropShadow_10_25"/>
<feBlend mode="normal" in="SourceGraphic" in2="effect4_dropShadow_10_25" result="shape"/>
</filter>
<linearGradient id="paint0_linear_10_25" x1="33.2762" y1="52.5" x2="72.7444" y2="52.5" gradientUnits="userSpaceOnUse">
<stop stop-color="#0077FF"/>
<stop offset="1" stop-color="#00DDFF"/>
</linearGradient>
</defs>
</svg>
